<svg width="221" height="15" viewBox="0 0 221 15" fill="none" xmlns="http://www.w3.org/2000/svg">
<path d="M1.112 12C0.877333 12 0.696 11.9413 0.568 11.824C0.450667 11.696 0.392 11.5147 0.392 11.28V1.44C0.392 1.20533 0.450667 1.02933 0.568 0.912C0.696 0.783999 0.877333 0.719999 1.112 0.719999H7.304C7.48533 0.719999 7.624 0.767999 7.72 0.863999C7.82667 0.959999 7.88 1.09333 7.88 1.264C7.88 1.44533 7.82667 1.584 7.72 1.68C7.624 1.776 7.48533 1.824 7.304 1.824H1.672V5.696H5.096C6.28 5.696 7.19733 5.95733 7.848 6.48C8.49867 7.00267 8.824 7.78667 8.824 8.832C8.824 9.86667 8.49867 10.656 7.848 11.2C7.19733 11.7333 6.28 12 5.096 12H1.112ZM1.672 10.896H4.968C5.82133 10.896 6.46133 10.7307 6.888 10.4C7.31467 10.0587 7.528 9.536 7.528 8.832C7.528 8.13867 7.31467 7.62667 6.888 7.296C6.46133 6.96533 5.82133 6.8 4.968 6.8H1.672V10.896ZM14.3625 12.144C13.5412 12.144 12.8318 11.984 12.2345 11.664C11.6478 11.3333 11.1892 10.8693 10.8585 10.272C10.5385 9.67467 10.3785 8.96 10.3785 8.128C10.3785 7.31733 10.5385 6.61333 10.8585 6.016C11.1785 5.408 11.6158 4.93333 12.1705 4.592C12.7358 4.25067 13.3865 4.08 14.1225 4.08C14.6452 4.08 15.1145 4.17067 15.5305 4.352C15.9465 4.52267 16.2985 4.77333 16.5865 5.104C16.8852 5.43467 17.1092 5.83467 17.2585 6.304C17.4185 6.77333 17.4985 7.30133 17.4985 7.888C17.4985 8.05867 17.4505 8.18667 17.3545 8.272C17.2585 8.34667 17.1198 8.384 16.9385 8.384H11.3705V7.536H16.6345L16.3785 7.744C16.3785 7.168 16.2932 6.68267 16.1225 6.288C15.9518 5.88267 15.7012 5.57333 15.3705 5.36C15.0505 5.14667 14.6452 5.04 14.1545 5.04C13.6105 5.04 13.1465 5.168 12.7625 5.424C12.3892 5.66933 12.1065 6.016 11.9145 6.464C11.7225 6.90133 11.6265 7.41333 11.6265 8V8.096C11.6265 9.07733 11.8612 9.824 12.3305 10.336C12.8105 10.848 13.4878 11.104 14.3625 11.104C14.7252 11.104 15.0825 11.056 15.4345 10.96C15.7972 10.864 16.1492 10.704 16.4905 10.48C16.6398 10.384 16.7732 10.3413 16.8905 10.352C17.0185 10.352 17.1198 10.3893 17.1945 10.464C17.2692 10.528 17.3172 10.6133 17.3385 10.72C17.3705 10.816 17.3598 10.9227 17.3065 11.04C17.2638 11.1573 17.1732 11.2587 17.0345 11.344C16.6825 11.6 16.2665 11.7973 15.7865 11.936C15.3065 12.0747 14.8318 12.144 14.3625 12.144ZM22.8264 12.144C22.0477 12.144 21.3757 11.9733 20.8104 11.632C20.245 11.2907 19.8077 10.816 19.4984 10.208C19.1997 9.58933 19.0504 8.87467 19.0504 8.064C19.0504 7.44533 19.1357 6.89067 19.3064 6.4C19.477 5.90933 19.7277 5.49333 20.0584 5.152C20.389 4.8 20.7837 4.53333 21.2424 4.352C21.7117 4.17067 22.2397 4.08 22.8264 4.08C23.2104 4.08 23.6104 4.13867 24.0264 4.256C24.4424 4.37333 24.821 4.576 25.1624 4.864C25.269 4.93867 25.3384 5.02933 25.3704 5.136C25.4024 5.24267 25.4024 5.34933 25.3704 5.456C25.3384 5.552 25.285 5.63733 25.2104 5.712C25.1357 5.776 25.0397 5.81333 24.9224 5.824C24.8157 5.83467 24.7037 5.79733 24.5864 5.712C24.309 5.49867 24.0264 5.34933 23.7384 5.264C23.4504 5.17867 23.173 5.136 22.9064 5.136C22.4904 5.136 22.1277 5.20533 21.8184 5.344C21.509 5.472 21.2477 5.65867 21.0344 5.904C20.821 6.14933 20.6557 6.45333 20.5384 6.816C20.4317 7.17867 20.3784 7.6 20.3784 8.08C20.3784 9.008 20.597 9.744 21.0344 10.288C21.4717 10.8213 22.0957 11.088 22.9064 11.088C23.173 11.088 23.445 11.0453 23.7224 10.96C24.0104 10.8747 24.2984 10.7253 24.5864 10.512C24.7037 10.4267 24.8157 10.3893 24.9224 10.4C25.029 10.4107 25.1197 10.4533 25.1944 10.528C25.269 10.592 25.317 10.6773 25.3384 10.784C25.3704 10.8907 25.3704 10.9973 25.3384 11.104C25.3064 11.2 25.237 11.2853 25.1304 11.36C24.789 11.6373 24.4157 11.84 24.0104 11.968C23.605 12.0853 23.2104 12.144 22.8264 12.144ZM27.7329 12.112C27.5195 12.112 27.3542 12.0533 27.2369 11.936C27.1302 11.8187 27.0769 11.6533 27.0769 11.44V4.96C27.0769 4.71467 27.1409 4.53333 27.2689 4.416C27.3969 4.288 27.5782 4.224 27.8129 4.224H33.1249C33.3595 4.224 33.5409 4.288 33.6689 4.416C33.7969 4.53333 33.8609 4.71467 33.8609 4.96V11.44C33.8609 11.6533 33.8022 11.8187 33.6849 11.936C33.5675 12.0533 33.4075 12.112 33.2049 12.112C33.0022 12.112 32.8422 12.0533 32.7249 11.936C32.6182 11.8187 32.5649 11.6533 32.5649 11.44V5.264H28.3729V11.44C28.3729 11.6533 28.3195 11.8187 28.2129 11.936C28.1062 12.0533 27.9462 12.112 27.7329 12.112ZM42.3886 12.112C42.186 12.112 42.026 12.0533 41.9086 11.936C41.802 11.8187 41.7486 11.6533 41.7486 11.44V5.264H38.6126V6.256C38.6126 7.088 38.57 7.824 38.4846 8.464C38.41 9.09333 38.2873 9.63733 38.1166 10.096C37.946 10.5547 37.7166 10.9387 37.4286 11.248C37.1513 11.5573 36.8046 11.8187 36.3886 12.032C36.25 12.096 36.1166 12.112 35.9886 12.08C35.8606 12.0587 35.754 12.0107 35.6686 11.936C35.594 11.8507 35.5406 11.7493 35.5086 11.632C35.4873 11.5147 35.5033 11.3973 35.5566 11.28C35.61 11.1627 35.706 11.0667 35.8446 10.992C36.154 10.8213 36.4046 10.608 36.5966 10.352C36.7993 10.096 36.9593 9.776 37.0766 9.392C37.194 9.008 37.274 8.56 37.3166 8.048C37.37 7.52533 37.3966 6.912 37.3966 6.208V4.96C37.3966 4.71467 37.4606 4.53333 37.5886 4.416C37.7166 4.288 37.898 4.224 38.1326 4.224H42.3086C42.5433 4.224 42.7246 4.288 42.8526 4.416C42.9806 4.53333 43.0446 4.71467 43.0446 4.96V11.44C43.0446 11.6533 42.986 11.8187 42.8686 11.936C42.762 12.0533 42.602 12.112 42.3886 12.112ZM48.0721 12.144C47.5388 12.144 47.0588 12.0427 46.6321 11.84C46.2161 11.6267 45.8855 11.3387 45.6401 10.976C45.3948 10.6133 45.2721 10.208 45.2721 9.76C45.2721 9.184 45.4161 8.73067 45.7041 8.4C46.0028 8.06933 46.4881 7.83467 47.1601 7.696C47.8428 7.55733 48.7708 7.488 49.9441 7.488H50.6641V8.336H49.9601C49.0961 8.336 48.4135 8.37867 47.9121 8.464C47.4215 8.53867 47.0748 8.672 46.8721 8.864C46.6801 9.056 46.5841 9.328 46.5841 9.68C46.5841 10.1173 46.7335 10.4747 47.0321 10.752C47.3415 11.0293 47.7575 11.168 48.2801 11.168C48.7068 11.168 49.0801 11.0667 49.4001 10.864C49.7308 10.6613 49.9868 10.384 50.1681 10.032C50.3601 9.68 50.4561 9.27467 50.4561 8.816V6.992C50.4561 6.33067 50.3228 5.856 50.0561 5.568C49.7895 5.26933 49.3521 5.12 48.7441 5.12C48.3708 5.12 47.9975 5.168 47.6241 5.264C47.2508 5.36 46.8561 5.51467 46.4401 5.728C46.2908 5.80267 46.1628 5.82933 46.0561 5.808C45.9495 5.776 45.8641 5.71733 45.8001 5.632C45.7361 5.54667 45.6988 5.45067 45.6881 5.344C45.6775 5.22667 45.6988 5.11467 45.7521 5.008C45.8161 4.90133 45.9121 4.816 46.0401 4.752C46.5095 4.51733 46.9735 4.34667 47.4321 4.24C47.8908 4.13333 48.3281 4.08 48.7441 4.08C49.4161 4.08 49.9708 4.192 50.4081 4.416C50.8455 4.62933 51.1708 4.96 51.3841 5.408C51.5975 5.84533 51.7041 6.41067 51.7041 7.104V11.44C51.7041 11.6533 51.6508 11.8187 51.5441 11.936C51.4481 12.0533 51.3041 12.112 51.1121 12.112C50.9095 12.112 50.7548 12.0533 50.6481 11.936C50.5415 11.8187 50.4881 11.6533 50.4881 11.44V10.192H50.6321C50.5468 10.5973 50.3815 10.944 50.1361 11.232C49.9015 11.52 49.6081 11.744 49.2561 11.904C48.9041 12.064 48.5095 12.144 48.0721 12.144ZM56.5051 12.112C56.3025 12.112 56.1425 12.0533 56.0251 11.936C55.9078 11.8187 55.8491 11.6533 55.8491 11.44V5.264H53.5131C53.1078 5.264 52.9051 5.088 52.9051 4.736C52.9051 4.576 52.9585 4.45333 53.0651 4.368C53.1718 4.272 53.3211 4.224 53.5131 4.224H59.4971C59.8918 4.224 60.0891 4.39467 60.0891 4.736C60.0891 4.90667 60.0358 5.04 59.9291 5.136C59.8331 5.22133 59.6891 5.264 59.4971 5.264H57.1451V11.44C57.1451 11.6533 57.0918 11.8187 56.9851 11.936C56.8891 12.0533 56.7291 12.112 56.5051 12.112ZM61.9985 12.112C61.7852 12.112 61.6198 12.0533 61.5025 11.936C61.3958 11.8187 61.3425 11.6533 61.3425 11.44V4.768C61.3425 4.544 61.3958 4.37867 61.5025 4.272C61.6198 4.16533 61.7852 4.112 61.9985 4.112C62.2012 4.112 62.3558 4.16533 62.4625 4.272C62.5798 4.37867 62.6385 4.544 62.6385 4.768V7.456H66.8785V4.768C66.8785 4.544 66.9318 4.37867 67.0385 4.272C67.1558 4.16533 67.3158 4.112 67.5185 4.112C67.7212 4.112 67.8812 4.16533 67.9985 4.272C68.1158 4.37867 68.1745 4.544 68.1745 4.768V11.44C68.1745 11.6533 68.1158 11.8187 67.9985 11.936C67.8812 12.0533 67.7212 12.112 67.5185 12.112C67.3158 12.112 67.1558 12.0533 67.0385 11.936C66.9318 11.8187 66.8785 11.6533 66.8785 11.44V8.512H62.6385V11.44C62.6385 11.6533 62.5852 11.8187 62.4785 11.936C62.3718 12.0533 62.2118 12.112 61.9985 12.112ZM73.1971 12.144C72.6638 12.144 72.1838 12.0427 71.7571 11.84C71.3411 11.6267 71.0105 11.3387 70.7651 10.976C70.5198 10.6133 70.3971 10.208 70.3971 9.76C70.3971 9.184 70.5411 8.73067 70.8291 8.4C71.1278 8.06933 71.6131 7.83467 72.2851 7.696C72.9678 7.55733 73.8958 7.488 75.0691 7.488H75.7891V8.336H75.0851C74.2211 8.336 73.5385 8.37867 73.0371 8.464C72.5465 8.53867 72.1998 8.672 71.9971 8.864C71.8051 9.056 71.7091 9.328 71.7091 9.68C71.7091 10.1173 71.8585 10.4747 72.1571 10.752C72.4665 11.0293 72.8825 11.168 73.4051 11.168C73.8318 11.168 74.2051 11.0667 74.5251 10.864C74.8558 10.6613 75.1118 10.384 75.2931 10.032C75.4851 9.68 75.5811 9.27467 75.5811 8.816V6.992C75.5811 6.33067 75.4478 5.856 75.1811 5.568C74.9145 5.26933 74.4771 5.12 73.8691 5.12C73.4958 5.12 73.1225 5.168 72.7491 5.264C72.3758 5.36 71.9811 5.51467 71.5651 5.728C71.4158 5.80267 71.2878 5.82933 71.1811 5.808C71.0745 5.776 70.9891 5.71733 70.9251 5.632C70.8611 5.54667 70.8238 5.45067 70.8131 5.344C70.8025 5.22667 70.8238 5.11467 70.8771 5.008C70.9411 4.90133 71.0371 4.816 71.1651 4.752C71.6345 4.51733 72.0985 4.34667 72.5571 4.24C73.0158 4.13333 73.4531 4.08 73.8691 4.08C74.5411 4.08 75.0958 4.192 75.5331 4.416C75.9705 4.62933 76.2958 4.96 76.5091 5.408C76.7225 5.84533 76.8291 6.41067 76.8291 7.104V11.44C76.8291 11.6533 76.7758 11.8187 76.6691 11.936C76.5731 12.0533 76.4291 12.112 76.2371 12.112C76.0345 12.112 75.8798 12.0533 75.7731 11.936C75.6665 11.8187 75.6131 11.6533 75.6131 11.44V10.192H75.7571C75.6718 10.5973 75.5065 10.944 75.2611 11.232C75.0265 11.52 74.7331 11.744 74.3811 11.904C74.0291 12.064 73.6345 12.144 73.1971 12.144ZM84.8141 12.112C84.6115 12.112 84.4568 12.0587 84.3501 11.952C84.2435 11.8347 84.1901 11.68 84.1901 11.488V9.04H83.0541C82.6381 9.04 82.2808 9.14667 81.9821 9.36C81.6835 9.57333 81.4435 9.83467 81.2621 10.144L80.3501 11.744C80.2541 11.904 80.1421 12.0107 80.0141 12.064C79.8861 12.1173 79.7581 12.128 79.6301 12.096C79.5021 12.064 79.3901 12 79.2941 11.904C79.1981 11.808 79.1395 11.696 79.1181 11.568C79.0968 11.4293 79.1288 11.2853 79.2141 11.136L79.9821 9.84C80.1635 9.52 80.4035 9.25333 80.7021 9.04C81.0008 8.82667 81.3048 8.72 81.6141 8.72H81.8221V8.864C80.9475 8.864 80.2701 8.66133 79.7901 8.256C79.3101 7.85067 79.0701 7.28533 79.0701 6.56C79.0701 6.08 79.1715 5.66933 79.3741 5.328C79.5875 4.976 79.9075 4.704 80.3341 4.512C80.7608 4.32 81.2888 4.224 81.9181 4.224H84.7341C84.9581 4.224 85.1288 4.28267 85.2461 4.4C85.3635 4.51733 85.4221 4.68267 85.4221 4.896V11.488C85.4221 11.68 85.3635 11.8347 85.2461 11.952C85.1395 12.0587 84.9955 12.112 84.8141 12.112ZM82.1581 8.096H84.1901V5.136H82.1581C81.5288 5.136 81.0648 5.26933 80.7661 5.536C80.4675 5.792 80.3181 6.14933 80.3181 6.608C80.3181 7.07733 80.4675 7.44533 80.7661 7.712C81.0648 7.968 81.5288 8.096 82.1581 8.096ZM91.8201 14.192C91.6388 14.192 91.5001 14.1387 91.4041 14.032C91.3081 13.9253 91.2601 13.776 91.2601 13.584V11.6C91.2601 11.1733 91.4735 10.96 91.9001 10.96H92.6681L91.9001 11.232C92.1881 10.848 92.4175 10.432 92.5881 9.984C92.7695 9.52533 92.9028 9.01333 92.9881 8.448C93.0735 7.88267 93.1161 7.23733 93.1161 6.512V4.96C93.1161 4.71467 93.1801 4.53333 93.3081 4.416C93.4361 4.288 93.6175 4.224 93.8521 4.224H97.8841C98.1295 4.224 98.3108 4.288 98.4281 4.416C98.5561 4.53333 98.6201 4.71467 98.6201 4.96V11.552L98.0281 10.96H99.2121C99.4148 10.96 99.5695 11.0133 99.6761 11.12C99.7935 11.2267 99.8521 11.3867 99.8521 11.6V13.584C99.8521 13.9893 99.6655 14.192 99.2921 14.192C99.1108 14.192 98.9721 14.1387 98.8761 14.032C98.7801 13.9253 98.7321 13.776 98.7321 13.584V12H92.3641V13.584C92.3641 13.9893 92.1828 14.192 91.8201 14.192ZM93.3241 10.96H97.3881V5.248H94.2681V6.736C94.2681 7.536 94.1881 8.30933 94.0281 9.056C93.8681 9.792 93.6335 10.4267 93.3241 10.96ZM104.825 12.144C104.068 12.144 103.412 11.9787 102.857 11.648C102.302 11.3173 101.87 10.8533 101.561 10.256C101.262 9.648 101.113 8.93333 101.113 8.112C101.113 7.49333 101.198 6.93867 101.369 6.448C101.54 5.94667 101.79 5.52 102.121 5.168C102.452 4.816 102.841 4.54933 103.289 4.368C103.748 4.176 104.26 4.08 104.825 4.08C105.582 4.08 106.238 4.24533 106.793 4.576C107.348 4.90667 107.774 5.376 108.073 5.984C108.382 6.58133 108.537 7.29067 108.537 8.112C108.537 8.73067 108.452 9.28533 108.281 9.776C108.11 10.2667 107.86 10.6933 107.529 11.056C107.198 11.408 106.804 11.68 106.345 11.872C105.897 12.0533 105.39 12.144 104.825 12.144ZM104.825 11.104C105.305 11.104 105.726 10.9867 106.089 10.752C106.452 10.5173 106.729 10.176 106.921 9.728C107.124 9.28 107.225 8.74133 107.225 8.112C107.225 7.14133 107.006 6.4 106.569 5.888C106.142 5.376 105.561 5.12 104.825 5.12C104.334 5.12 103.908 5.23733 103.545 5.472C103.193 5.696 102.916 6.032 102.713 6.48C102.521 6.91733 102.425 7.46133 102.425 8.112C102.425 9.072 102.644 9.81333 103.081 10.336C103.518 10.848 104.1 11.104 104.825 11.104ZM113.951 12.144C113.173 12.144 112.501 11.9733 111.935 11.632C111.37 11.2907 110.933 10.816 110.623 10.208C110.325 9.58933 110.175 8.87467 110.175 8.064C110.175 7.44533 110.261 6.89067 110.431 6.4C110.602 5.90933 110.853 5.49333 111.183 5.152C111.514 4.8 111.909 4.53333 112.367 4.352C112.837 4.17067 113.365 4.08 113.951 4.08C114.335 4.08 114.735 4.13867 115.151 4.256C115.567 4.37333 115.946 4.576 116.287 4.864C116.394 4.93867 116.463 5.02933 116.495 5.136C116.527 5.24267 116.527 5.34933 116.495 5.456C116.463 5.552 116.41 5.63733 116.335 5.712C116.261 5.776 116.165 5.81333 116.047 5.824C115.941 5.83467 115.829 5.79733 115.711 5.712C115.434 5.49867 115.151 5.34933 114.863 5.264C114.575 5.17867 114.298 5.136 114.031 5.136C113.615 5.136 113.253 5.20533 112.943 5.344C112.634 5.472 112.373 5.65867 112.159 5.904C111.946 6.14933 111.781 6.45333 111.663 6.816C111.557 7.17867 111.503 7.6 111.503 8.08C111.503 9.008 111.722 9.744 112.159 10.288C112.597 10.8213 113.221 11.088 114.031 11.088C114.298 11.088 114.57 11.0453 114.847 10.96C115.135 10.8747 115.423 10.7253 115.711 10.512C115.829 10.4267 115.941 10.3893 116.047 10.4C116.154 10.4107 116.245 10.4533 116.319 10.528C116.394 10.592 116.442 10.6773 116.463 10.784C116.495 10.8907 116.495 10.9973 116.463 11.104C116.431 11.2 116.362 11.2853 116.255 11.36C115.914 11.6373 115.541 11.84 115.135 11.968C114.73 12.0853 114.335 12.144 113.951 12.144ZM120.474 12.112C120.271 12.112 120.111 12.0533 119.994 11.936C119.877 11.8187 119.818 11.6533 119.818 11.44V5.264H117.482C117.077 5.264 116.874 5.088 116.874 4.736C116.874 4.576 116.927 4.45333 117.034 4.368C117.141 4.272 117.29 4.224 117.482 4.224H123.466C123.861 4.224 124.058 4.39467 124.058 4.736C124.058 4.90667 124.005 5.04 123.898 5.136C123.802 5.22133 123.658 5.264 123.466 5.264H121.114V11.44C121.114 11.6533 121.061 11.8187 120.954 11.936C120.858 12.0533 120.698 12.112 120.474 12.112ZM127.775 12.144C127.242 12.144 126.762 12.0427 126.335 11.84C125.919 11.6267 125.589 11.3387 125.343 10.976C125.098 10.6133 124.975 10.208 124.975 9.76C124.975 9.184 125.119 8.73067 125.407 8.4C125.706 8.06933 126.191 7.83467 126.863 7.696C127.546 7.55733 128.474 7.488 129.647 7.488H130.367V8.336H129.663C128.799 8.336 128.117 8.37867 127.615 8.464C127.125 8.53867 126.778 8.672 126.575 8.864C126.383 9.056 126.287 9.328 126.287 9.68C126.287 10.1173 126.437 10.4747 126.735 10.752C127.045 11.0293 127.461 11.168 127.983 11.168C128.41 11.168 128.783 11.0667 129.103 10.864C129.434 10.6613 129.69 10.384 129.871 10.032C130.063 9.68 130.159 9.27467 130.159 8.816V6.992C130.159 6.33067 130.026 5.856 129.759 5.568C129.493 5.26933 129.055 5.12 128.447 5.12C128.074 5.12 127.701 5.168 127.327 5.264C126.954 5.36 126.559 5.51467 126.143 5.728C125.994 5.80267 125.866 5.82933 125.759 5.808C125.653 5.776 125.567 5.71733 125.503 5.632C125.439 5.54667 125.402 5.45067 125.391 5.344C125.381 5.22667 125.402 5.11467 125.455 5.008C125.519 4.90133 125.615 4.816 125.743 4.752C126.213 4.51733 126.677 4.34667 127.135 4.24C127.594 4.13333 128.031 4.08 128.447 4.08C129.119 4.08 129.674 4.192 130.111 4.416C130.549 4.62933 130.874 4.96 131.087 5.408C131.301 5.84533 131.407 6.41067 131.407 7.104V11.44C131.407 11.6533 131.354 11.8187 131.247 11.936C131.151 12.0533 131.007 12.112 130.815 12.112C130.613 12.112 130.458 12.0533 130.351 11.936C130.245 11.8187 130.191 11.6533 130.191 11.44V10.192H130.335C130.25 10.5973 130.085 10.944 129.839 11.232C129.605 11.52 129.311 11.744 128.959 11.904C128.607 12.064 128.213 12.144 127.775 12.144ZM134.608 12C134.395 12 134.23 11.9413 134.112 11.824C133.995 11.7067 133.936 11.5413 133.936 11.328V4.896C133.936 4.68267 133.995 4.51733 134.112 4.4C134.23 4.28267 134.395 4.224 134.608 4.224H137.728C138.347 4.224 138.854 4.304 139.248 4.464C139.643 4.61333 139.936 4.84267 140.128 5.152C140.32 5.45067 140.416 5.824 140.416 6.272C140.416 6.76267 140.24 7.17867 139.888 7.52C139.547 7.86133 139.099 8.064 138.544 8.128V7.92C139.206 7.94133 139.723 8.128 140.096 8.48C140.48 8.832 140.672 9.29067 140.672 9.856C140.672 10.5173 140.427 11.04 139.936 11.424C139.446 11.808 138.752 12 137.856 12H134.608ZM135.168 11.12H137.808C138.331 11.12 138.731 11.008 139.008 10.784C139.296 10.5493 139.44 10.2187 139.44 9.792C139.44 9.36533 139.296 9.04 139.008 8.816C138.731 8.592 138.331 8.48 137.808 8.48H135.168V11.12ZM135.168 7.6H137.664C138.144 7.6 138.518 7.488 138.784 7.264C139.062 7.04 139.2 6.73067 139.2 6.336C139.2 5.94133 139.062 5.63733 138.784 5.424C138.518 5.21067 138.144 5.104 137.664 5.104H135.168V7.6ZM143.342 12.112C143.129 12.112 142.964 12.0533 142.846 11.936C142.74 11.8187 142.686 11.6533 142.686 11.44V4.816C142.686 4.592 142.74 4.42667 142.846 4.32C142.964 4.20267 143.129 4.144 143.342 4.144C143.545 4.144 143.7 4.20267 143.806 4.32C143.924 4.42667 143.982 4.592 143.982 4.816V7.472H145.438L147.806 4.432C147.913 4.304 148.03 4.224 148.158 4.192C148.286 4.14933 148.404 4.14933 148.51 4.192C148.628 4.224 148.718 4.288 148.782 4.384C148.857 4.46933 148.894 4.576 148.894 4.704C148.894 4.832 148.846 4.96533 148.75 5.104L146.494 8L146.126 7.584C146.425 7.616 146.686 7.69067 146.91 7.808C147.134 7.92533 147.348 8.10133 147.55 8.336C147.753 8.57067 147.972 8.896 148.206 9.312L149.358 11.216C149.433 11.3653 149.46 11.4987 149.438 11.616C149.428 11.7333 149.374 11.84 149.278 11.936C149.182 12.0213 149.07 12.0747 148.942 12.096C148.825 12.1173 148.708 12.1013 148.59 12.048C148.473 11.9947 148.366 11.8987 148.27 11.76L147.006 9.648C146.825 9.34933 146.654 9.12 146.494 8.96C146.334 8.78933 146.153 8.672 145.95 8.608C145.748 8.544 145.497 8.512 145.198 8.512H143.982V11.44C143.982 11.6533 143.924 11.8187 143.806 11.936C143.7 12.0533 143.545 12.112 143.342 12.112ZM153.572 12.144C153.039 12.144 152.559 12.0427 152.132 11.84C151.716 11.6267 151.385 11.3387 151.14 10.976C150.895 10.6133 150.772 10.208 150.772 9.76C150.772 9.184 150.916 8.73067 151.204 8.4C151.503 8.06933 151.988 7.83467 152.66 7.696C153.343 7.55733 154.271 7.488 155.444 7.488H156.164V8.336H155.46C154.596 8.336 153.913 8.37867 153.412 8.464C152.921 8.53867 152.575 8.672 152.372 8.864C152.18 9.056 152.084 9.328 152.084 9.68C152.084 10.1173 152.233 10.4747 152.532 10.752C152.841 11.0293 153.257 11.168 153.78 11.168C154.207 11.168 154.58 11.0667 154.9 10.864C155.231 10.6613 155.487 10.384 155.668 10.032C155.86 9.68 155.956 9.27467 155.956 8.816V6.992C155.956 6.33067 155.823 5.856 155.556 5.568C155.289 5.26933 154.852 5.12 154.244 5.12C153.871 5.12 153.497 5.168 153.124 5.264C152.751 5.36 152.356 5.51467 151.94 5.728C151.791 5.80267 151.663 5.82933 151.556 5.808C151.449 5.776 151.364 5.71733 151.3 5.632C151.236 5.54667 151.199 5.45067 151.188 5.344C151.177 5.22667 151.199 5.11467 151.252 5.008C151.316 4.90133 151.412 4.816 151.54 4.752C152.009 4.51733 152.473 4.34667 152.932 4.24C153.391 4.13333 153.828 4.08 154.244 4.08C154.916 4.08 155.471 4.192 155.908 4.416C156.345 4.62933 156.671 4.96 156.884 5.408C157.097 5.84533 157.204 6.41067 157.204 7.104V11.44C157.204 11.6533 157.151 11.8187 157.044 11.936C156.948 12.0533 156.804 12.112 156.612 12.112C156.409 12.112 156.255 12.0533 156.148 11.936C156.041 11.8187 155.988 11.6533 155.988 11.44V10.192H156.132C156.047 10.5973 155.881 10.944 155.636 11.232C155.401 11.52 155.108 11.744 154.756 11.904C154.404 12.064 154.009 12.144 153.572 12.144ZM167.106 12.144C166.349 12.144 165.693 11.9787 165.138 11.648C164.583 11.3173 164.151 10.8533 163.842 10.256C163.543 9.648 163.394 8.93333 163.394 8.112C163.394 7.49333 163.479 6.93867 163.65 6.448C163.821 5.94667 164.071 5.52 164.402 5.168C164.733 4.816 165.122 4.54933 165.57 4.368C166.029 4.176 166.541 4.08 167.106 4.08C167.863 4.08 168.519 4.24533 169.074 4.576C169.629 4.90667 170.055 5.376 170.354 5.984C170.663 6.58133 170.818 7.29067 170.818 8.112C170.818 8.73067 170.733 9.28533 170.562 9.776C170.391 10.2667 170.141 10.6933 169.81 11.056C169.479 11.408 169.085 11.68 168.626 11.872C168.178 12.0533 167.671 12.144 167.106 12.144ZM167.106 11.104C167.586 11.104 168.007 10.9867 168.37 10.752C168.733 10.5173 169.01 10.176 169.202 9.728C169.405 9.28 169.506 8.74133 169.506 8.112C169.506 7.14133 169.287 6.4 168.85 5.888C168.423 5.376 167.842 5.12 167.106 5.12C166.615 5.12 166.189 5.23733 165.826 5.472C165.474 5.696 165.197 6.032 164.994 6.48C164.802 6.91733 164.706 7.46133 164.706 8.112C164.706 9.072 164.925 9.81333 165.362 10.336C165.799 10.848 166.381 11.104 167.106 11.104ZM175.193 12.112C174.99 12.112 174.83 12.0533 174.713 11.936C174.595 11.8187 174.537 11.6533 174.537 11.44V5.264H172.201C171.795 5.264 171.593 5.088 171.593 4.736C171.593 4.576 171.646 4.45333 171.753 4.368C171.859 4.272 172.009 4.224 172.201 4.224H178.185C178.579 4.224 178.777 4.39467 178.777 4.736C178.777 4.90667 178.723 5.04 178.617 5.136C178.521 5.22133 178.377 5.264 178.185 5.264H175.833V11.44C175.833 11.6533 175.779 11.8187 175.673 11.936C175.577 12.0533 175.417 12.112 175.193 12.112ZM187.851 12.144C187.264 12.144 186.672 12.064 186.075 11.904C185.478 11.7333 184.934 11.472 184.443 11.12C184.283 11.024 184.176 10.9013 184.123 10.752C184.07 10.6027 184.059 10.4587 184.091 10.32C184.123 10.1707 184.187 10.048 184.283 9.952C184.39 9.856 184.518 9.80267 184.667 9.792C184.816 9.77067 184.976 9.81333 185.147 9.92C185.563 10.1867 185.99 10.3893 186.427 10.528C186.875 10.6667 187.339 10.736 187.819 10.736C188.31 10.736 188.731 10.6453 189.083 10.464C189.435 10.2827 189.702 10.032 189.883 9.712C190.075 9.38133 190.171 8.99733 190.171 8.56C190.171 7.888 189.974 7.33867 189.579 6.912C189.184 6.48533 188.635 6.272 187.931 6.272C187.526 6.272 187.147 6.34667 186.795 6.496C186.443 6.63467 186.107 6.86933 185.787 7.2C185.712 7.28533 185.611 7.36533 185.483 7.44C185.366 7.504 185.232 7.536 185.083 7.536C184.859 7.536 184.688 7.47733 184.571 7.36C184.454 7.24267 184.395 7.08267 184.395 6.88V1.456C184.395 1.22133 184.459 1.04 184.587 0.912C184.715 0.783999 184.896 0.719999 185.131 0.719999H190.491C190.726 0.719999 190.907 0.778666 191.035 0.896C191.163 1.01333 191.227 1.184 191.227 1.408C191.227 1.632 191.163 1.808 191.035 1.936C190.907 2.05333 190.726 2.112 190.491 2.112H186.011V6.176H185.563C185.851 5.77067 186.23 5.456 186.699 5.232C187.179 5.008 187.707 4.896 188.283 4.896C188.998 4.896 189.616 5.04533 190.139 5.344C190.662 5.64267 191.067 6.064 191.355 6.608C191.643 7.14133 191.787 7.76533 191.787 8.48C191.787 9.20533 191.627 9.84533 191.307 10.4C190.987 10.944 190.534 11.3707 189.947 11.68C189.36 11.9893 188.662 12.144 187.851 12.144ZM196.437 12.144C195.967 12.144 195.477 12.064 194.965 11.904C194.463 11.7333 194.005 11.4827 193.589 11.152C193.45 11.056 193.359 10.9387 193.317 10.8C193.285 10.6507 193.285 10.512 193.317 10.384C193.349 10.2453 193.413 10.128 193.509 10.032C193.605 9.92533 193.722 9.86667 193.861 9.856C194.01 9.83467 194.165 9.87733 194.325 9.984C194.687 10.2507 195.045 10.4427 195.397 10.56C195.759 10.6773 196.117 10.736 196.469 10.736C197.13 10.736 197.69 10.576 198.149 10.256C198.607 9.936 198.954 9.456 199.189 8.816C199.423 8.176 199.541 7.38133 199.541 6.432V5.072H199.717C199.642 5.63733 199.461 6.13333 199.173 6.56C198.895 6.98667 198.533 7.312 198.085 7.536C197.637 7.76 197.141 7.872 196.597 7.872C195.946 7.872 195.365 7.71733 194.853 7.408C194.341 7.09867 193.941 6.672 193.653 6.128C193.365 5.584 193.221 4.97067 193.221 4.288C193.221 3.56267 193.375 2.92267 193.685 2.368C193.994 1.80267 194.421 1.36533 194.965 1.056C195.519 0.735999 196.154 0.575999 196.869 0.575999C197.786 0.575999 198.559 0.794666 199.189 1.232C199.818 1.65867 200.298 2.288 200.629 3.12C200.97 3.952 201.141 4.94933 201.141 6.112C201.141 7.08267 201.034 7.94133 200.821 8.688C200.607 9.43467 200.298 10.064 199.893 10.576C199.487 11.088 198.991 11.4773 198.405 11.744C197.829 12.0107 197.173 12.144 196.437 12.144ZM196.981 6.512C197.407 6.512 197.786 6.416 198.117 6.224C198.447 6.032 198.703 5.76 198.885 5.408C199.077 5.056 199.173 4.656 199.173 4.208C199.173 3.74933 199.077 3.34933 198.885 3.008C198.703 2.656 198.447 2.384 198.117 2.192C197.786 2 197.407 1.904 196.981 1.904C196.543 1.904 196.159 2 195.829 2.192C195.509 2.384 195.253 2.656 195.061 3.008C194.879 3.34933 194.789 3.74933 194.789 4.208C194.789 4.656 194.879 5.056 195.061 5.408C195.253 5.76 195.509 6.032 195.829 6.224C196.159 6.416 196.543 6.512 196.981 6.512ZM206.031 12.144C205.561 12.144 205.071 12.064 204.559 11.904C204.057 11.7333 203.599 11.4827 203.183 11.152C203.044 11.056 202.953 10.9387 202.911 10.8C202.879 10.6507 202.879 10.512 202.911 10.384C202.943 10.2453 203.007 10.128 203.103 10.032C203.199 9.92533 203.316 9.86667 203.455 9.856C203.604 9.83467 203.759 9.87733 203.919 9.984C204.281 10.2507 204.639 10.4427 204.991 10.56C205.353 10.6773 205.711 10.736 206.062 10.736C206.724 10.736 207.284 10.576 207.743 10.256C208.201 9.936 208.548 9.456 208.783 8.816C209.017 8.176 209.135 7.38133 209.135 6.432V5.072H209.311C209.236 5.63733 209.055 6.13333 208.767 6.56C208.489 6.98667 208.127 7.312 207.679 7.536C207.231 7.76 206.735 7.872 206.191 7.872C205.54 7.872 204.959 7.71733 204.447 7.408C203.935 7.09867 203.535 6.672 203.247 6.128C202.959 5.584 202.815 4.97067 202.815 4.288C202.815 3.56267 202.969 2.92267 203.279 2.368C203.588 1.80267 204.015 1.36533 204.559 1.056C205.113 0.735999 205.748 0.575999 206.463 0.575999C207.38 0.575999 208.153 0.794666 208.783 1.232C209.412 1.65867 209.892 2.288 210.223 3.12C210.564 3.952 210.735 4.94933 210.735 6.112C210.735 7.08267 210.628 7.94133 210.415 8.688C210.201 9.43467 209.892 10.064 209.487 10.576C209.081 11.088 208.585 11.4773 207.999 11.744C207.423 12.0107 206.767 12.144 206.031 12.144ZM206.575 6.512C207.001 6.512 207.38 6.416 207.711 6.224C208.041 6.032 208.297 5.76 208.479 5.408C208.671 5.056 208.767 4.656 208.767 4.208C208.767 3.74933 208.671 3.34933 208.479 3.008C208.297 2.656 208.041 2.384 207.711 2.192C207.38 2 207.001 1.904 206.575 1.904C206.137 1.904 205.753 2 205.423 2.192C205.103 2.384 204.847 2.656 204.655 3.008C204.473 3.34933 204.383 3.74933 204.383 4.208C204.383 4.656 204.473 5.056 204.655 5.408C204.847 5.76 205.103 6.032 205.423 6.224C205.753 6.416 206.137 6.512 206.575 6.512ZM214.2 12.112C213.944 12.112 213.742 12.0373 213.592 11.888C213.443 11.7387 213.368 11.5253 213.368 11.248V9.696H212.456C212.254 9.696 212.094 9.648 211.976 9.552C211.87 9.44533 211.816 9.30133 211.816 9.12C211.816 8.928 211.87 8.784 211.976 8.688C212.094 8.58133 212.254 8.528 212.456 8.528H213.368V7.232H212.456C212.254 7.232 212.094 7.184 211.976 7.088C211.87 6.98133 211.816 6.832 211.816 6.64C211.816 6.45867 211.87 6.32 211.976 6.224C212.094 6.11733 212.254 6.064 212.456 6.064H213.368V1.552C213.368 1.28533 213.438 1.08267 213.576 0.943999C213.726 0.794666 213.934 0.719999 214.2 0.719999H217.112C217.923 0.719999 218.611 0.858666 219.176 1.136C219.742 1.40267 220.168 1.78133 220.456 2.272C220.744 2.76267 220.888 3.34933 220.888 4.032C220.888 4.68267 220.739 5.248 220.44 5.728C220.142 6.19733 219.72 6.56533 219.176 6.832C218.632 7.09867 217.982 7.232 217.224 7.232H215.048V8.528H217.224C217.427 8.528 217.582 8.58133 217.688 8.688C217.806 8.784 217.864 8.928 217.864 9.12C217.864 9.30133 217.806 9.44533 217.688 9.552C217.582 9.648 217.427 9.696 217.224 9.696H215.048V11.248C215.048 11.5253 214.974 11.7387 214.824 11.888C214.686 12.0373 214.478 12.112 214.2 12.112ZM215.016 6.064H216.952C217.71 6.064 218.286 5.90933 218.68 5.6C219.086 5.28 219.288 4.78933 219.288 4.128C219.288 3.456 219.091 2.95467 218.696 2.624C218.302 2.29333 217.715 2.128 216.936 2.128H215.016V6.064Z" fill="white"/>
</svg>
