<svg width="422" height="106" viewBox="0 0 422 106" fill="none" xmlns="http://www.w3.org/2000/svg">
<path d="M16.85 36.45C15.5833 36.45 14.6167 36.1 13.95 35.4C13.2833 34.7 12.95 33.7167 12.95 32.45V7.15H4.1C3.06667 7.15 2.26667 6.86667 1.7 6.3C1.13333 5.73333 0.85 4.95 0.85 3.95C0.85 2.91666 1.13333 2.13333 1.7 1.6C2.26667 1.03333 3.06667 0.749998 4.1 0.749998H29.55C30.5833 0.749998 31.3833 1.03333 31.95 1.6C32.5167 2.13333 32.8 2.91666 32.8 3.95C32.8 4.95 32.5167 5.73333 31.95 6.3C31.3833 6.86667 30.5833 7.15 29.55 7.15H20.7V32.45C20.7 33.7167 20.3667 34.7 19.7 35.4C19.0667 36.1 18.1167 36.45 16.85 36.45ZM43.7367 36.55C41.1034 36.55 38.8034 36.0333 36.8367 35C34.9034 33.9667 33.4034 32.4833 32.3367 30.55C31.2701 28.6167 30.7367 26.3333 30.7367 23.7C30.7367 21.7333 31.0367 19.9667 31.6367 18.4C32.2367 16.8333 33.1034 15.5 34.2367 14.4C35.4034 13.2667 36.7867 12.4167 38.3867 11.85C39.9867 11.25 41.7701 10.95 43.7367 10.95C46.3701 10.95 48.6534 11.4667 50.5867 12.5C52.5534 13.5333 54.0701 15 55.1367 16.9C56.2367 18.8 56.7867 21.0667 56.7867 23.7C56.7867 25.7 56.4701 27.4833 55.8367 29.05C55.2367 30.6167 54.3701 31.9667 53.2367 33.1C52.1034 34.2333 50.7201 35.1 49.0867 35.7C47.4867 36.2667 45.7034 36.55 43.7367 36.55ZM43.7367 30.9C44.8367 30.9 45.7867 30.6333 46.5867 30.1C47.3867 29.5667 48.0201 28.7833 48.4867 27.75C48.9534 26.6833 49.1867 25.3333 49.1867 23.7C49.1867 21.2667 48.6867 19.4833 47.6867 18.35C46.6867 17.1833 45.3701 16.6 43.7367 16.6C42.6701 16.6 41.7201 16.85 40.8867 17.35C40.0867 17.85 39.4534 18.6333 38.9867 19.7C38.5534 20.7333 38.3367 22.0667 38.3367 23.7C38.3367 26.1333 38.8367 27.95 39.8367 29.15C40.8367 30.3167 42.1367 30.9 43.7367 30.9ZM81.7742 36.45C80.5409 36.45 79.5909 36.1167 78.9242 35.45C78.2909 34.7833 77.9742 33.8333 77.9742 32.6V17.3H71.5742V20.05C71.5742 22.1833 71.4242 24.1167 71.1242 25.85C70.8242 27.5833 70.3742 29.1167 69.7742 30.45C69.1742 31.7833 68.4076 32.9167 67.4742 33.85C66.5409 34.75 65.4242 35.4667 64.1242 36C63.2576 36.3667 62.4742 36.4667 61.7742 36.3C61.0742 36.1333 60.4909 35.8167 60.0242 35.35C59.5909 34.8833 59.3076 34.3333 59.1742 33.7C59.0742 33.0333 59.1576 32.3833 59.4242 31.75C59.7242 31.0833 60.2576 30.5167 61.0242 30.05C61.7576 29.65 62.3576 29.1333 62.8242 28.5C63.2909 27.8667 63.6576 27.1167 63.9242 26.25C64.1909 25.3833 64.3742 24.4333 64.4742 23.4C64.6076 22.3333 64.6742 21.1333 64.6742 19.8V15.7C64.6742 14.3333 65.0242 13.2833 65.7242 12.55C66.4576 11.8167 67.5076 11.45 68.8742 11.45H81.3242C82.6909 11.45 83.7242 11.8167 84.4242 12.55C85.1576 13.2833 85.5242 14.3333 85.5242 15.7V32.6C85.5242 33.8333 85.1909 34.7833 84.5242 35.45C83.8909 36.1167 82.9742 36.45 81.7742 36.45ZM95.7918 36C94.6251 36 93.7251 35.6833 93.0918 35.05C92.4585 34.4167 92.1418 33.5 92.1418 32.3V14.85C92.1418 13.5833 92.4585 12.6333 93.0918 12C93.7585 11.3667 94.7085 11.05 95.9418 11.05C97.1418 11.05 98.0585 11.3667 98.6918 12C99.3585 12.6333 99.6918 13.5833 99.6918 14.85V19.25H105.592C108.892 19.25 111.375 19.95 113.042 21.35C114.742 22.7167 115.592 24.75 115.592 27.45C115.592 29.15 115.175 30.65 114.342 31.95C113.508 33.2167 112.342 34.2167 110.842 34.95C109.375 35.65 107.625 36 105.592 36H95.7918ZM99.6918 31.15H104.292C105.658 31.15 106.725 30.85 107.492 30.25C108.292 29.65 108.692 28.75 108.692 27.55C108.692 26.35 108.308 25.4667 107.542 24.9C106.775 24.3333 105.692 24.05 104.292 24.05H99.6918V31.15ZM124.116 36.45C122.882 36.45 121.932 36.1167 121.266 35.45C120.632 34.7833 120.316 33.8333 120.316 32.6V14.9C120.316 13.6667 120.632 12.7167 121.266 12.05C121.932 11.3833 122.882 11.05 124.116 11.05C125.316 11.05 126.232 11.3833 126.866 12.05C127.532 12.7167 127.866 13.6667 127.866 14.9V20.6H130.816L136.416 12.8C136.949 12.0333 137.566 11.5333 138.266 11.3C138.999 11.0667 139.699 11.05 140.366 11.25C141.032 11.45 141.582 11.8167 142.016 12.35C142.449 12.85 142.682 13.45 142.716 14.15C142.782 14.85 142.532 15.6 141.966 16.4L136.566 24L135.066 21.55C135.966 21.65 136.782 21.9167 137.516 22.35C138.249 22.7833 138.916 23.35 139.516 24.05C140.116 24.7167 140.682 25.5333 141.216 26.5L143.866 31.35C144.332 32.1833 144.482 32.9667 144.316 33.7C144.182 34.4 143.832 34.9833 143.266 35.45C142.732 35.9167 142.099 36.2 141.366 36.3C140.632 36.4333 139.916 36.35 139.216 36.05C138.516 35.75 137.932 35.1667 137.466 34.3L134.416 28.9C134.082 28.2333 133.732 27.7167 133.366 27.35C132.999 26.9833 132.582 26.7333 132.116 26.6C131.682 26.4667 131.166 26.4 130.566 26.4H127.866V32.6C127.866 33.8333 127.532 34.7833 126.866 35.45C126.232 36.1167 125.316 36.45 124.116 36.45ZM161.071 36.55C158.437 36.55 156.137 36.0333 154.171 35C152.237 33.9667 150.737 32.4833 149.671 30.55C148.604 28.6167 148.071 26.3333 148.071 23.7C148.071 21.7333 148.371 19.9667 148.971 18.4C149.571 16.8333 150.437 15.5 151.571 14.4C152.737 13.2667 154.121 12.4167 155.721 11.85C157.321 11.25 159.104 10.95 161.071 10.95C163.704 10.95 165.987 11.4667 167.921 12.5C169.887 13.5333 171.404 15 172.471 16.9C173.571 18.8 174.121 21.0667 174.121 23.7C174.121 25.7 173.804 27.4833 173.171 29.05C172.571 30.6167 171.704 31.9667 170.571 33.1C169.437 34.2333 168.054 35.1 166.421 35.7C164.821 36.2667 163.037 36.55 161.071 36.55ZM161.071 30.9C162.171 30.9 163.121 30.6333 163.921 30.1C164.721 29.5667 165.354 28.7833 165.821 27.75C166.287 26.6833 166.521 25.3333 166.521 23.7C166.521 21.2667 166.021 19.4833 165.021 18.35C164.021 17.1833 162.704 16.6 161.071 16.6C160.004 16.6 159.054 16.85 158.221 17.35C157.421 17.85 156.787 18.6333 156.321 19.7C155.887 20.7333 155.671 22.0667 155.671 23.7C155.671 26.1333 156.171 27.95 157.171 29.15C158.171 30.3167 159.471 30.9 161.071 30.9ZM205.361 36.55C202.695 36.55 200.361 36.0333 198.361 35C196.395 33.9333 194.878 32.4333 193.811 30.5C192.745 28.5667 192.211 26.2833 192.211 23.65C192.211 21.6833 192.511 19.9167 193.111 18.35C193.711 16.7833 194.578 15.45 195.711 14.35C196.878 13.25 198.278 12.4167 199.911 11.85C201.545 11.25 203.361 10.95 205.361 10.95C206.395 10.95 207.495 11.0833 208.661 11.35C209.828 11.5833 210.978 12 212.111 12.6C212.778 12.9 213.228 13.3333 213.461 13.9C213.728 14.4333 213.828 15 213.761 15.6C213.695 16.1667 213.478 16.6833 213.111 17.15C212.778 17.5833 212.345 17.8833 211.811 18.05C211.278 18.1833 210.678 18.0833 210.011 17.75C209.378 17.3833 208.711 17.1167 208.011 16.95C207.345 16.7833 206.711 16.7 206.111 16.7C205.111 16.7 204.228 16.8667 203.461 17.2C202.695 17.5 202.045 17.95 201.511 18.55C201.011 19.1167 200.611 19.8333 200.311 20.7C200.045 21.5667 199.911 22.5667 199.911 23.7C199.911 25.9 200.445 27.6333 201.511 28.9C202.611 30.1333 204.145 30.75 206.111 30.75C206.711 30.75 207.345 30.6833 208.011 30.55C208.678 30.3833 209.345 30.1167 210.011 29.75C210.678 29.4167 211.278 29.3333 211.811 29.5C212.345 29.6667 212.761 29.9833 213.061 30.45C213.395 30.8833 213.578 31.4 213.611 32C213.678 32.5667 213.578 33.1333 213.311 33.7C213.078 34.2333 212.645 34.65 212.011 34.95C210.878 35.5167 209.745 35.9167 208.611 36.15C207.478 36.4167 206.395 36.55 205.361 36.55ZM226.418 36.55C224.618 36.55 223.002 36.2 221.568 35.5C220.135 34.8 219.018 33.85 218.218 32.65C217.418 31.45 217.018 30.1 217.018 28.6C217.018 26.8 217.485 25.3833 218.418 24.35C219.352 23.2833 220.868 22.5333 222.968 22.1C225.068 21.6333 227.852 21.4 231.318 21.4H233.968V25.3H231.368C229.668 25.3 228.285 25.4 227.218 25.6C226.185 25.7667 225.435 26.0667 224.968 26.5C224.535 26.9333 224.318 27.5333 224.318 28.3C224.318 29.2333 224.635 30 225.268 30.6C225.935 31.2 226.885 31.5 228.118 31.5C229.085 31.5 229.935 31.2833 230.668 30.85C231.435 30.3833 232.035 29.7667 232.468 29C232.902 28.2 233.118 27.3 233.118 26.3V20.55C233.118 19.0833 232.785 18.05 232.118 17.45C231.452 16.8167 230.318 16.5 228.718 16.5C227.818 16.5 226.835 16.6167 225.768 16.85C224.735 17.05 223.585 17.4 222.318 17.9C221.585 18.2333 220.935 18.3167 220.368 18.15C219.802 17.95 219.368 17.6167 219.068 17.15C218.768 16.65 218.618 16.1167 218.618 15.55C218.618 14.95 218.785 14.3833 219.118 13.85C219.452 13.2833 220.002 12.8667 220.768 12.6C222.335 11.9667 223.802 11.5333 225.168 11.3C226.568 11.0667 227.852 10.95 229.018 10.95C231.585 10.95 233.685 11.3333 235.318 12.1C236.985 12.8333 238.235 13.9833 239.068 15.55C239.902 17.0833 240.318 19.0667 240.318 21.5V32.6C240.318 33.8333 240.018 34.7833 239.418 35.45C238.818 36.1167 237.952 36.45 236.818 36.45C235.685 36.45 234.802 36.1167 234.168 35.45C233.568 34.7833 233.268 33.8333 233.268 32.6V30.75L233.618 31.05C233.418 32.1833 232.985 33.1667 232.318 34C231.685 34.8 230.868 35.4333 229.868 35.9C228.868 36.3333 227.718 36.55 226.418 36.55ZM250.08 36.45C249.014 36.45 248.197 36.15 247.63 35.55C247.064 34.9167 246.78 34.0333 246.78 32.9V15.2C246.78 14.3 246.897 13.55 247.13 12.95C247.364 12.3167 247.747 11.85 248.28 11.55C248.814 11.2167 249.464 11.05 250.23 11.05C250.964 11.05 251.58 11.1667 252.08 11.4C252.58 11.6333 253.014 11.95 253.38 12.35C253.747 12.75 254.08 13.2167 254.38 13.75L261.03 24.85L267.63 13.8C267.897 13.3 268.197 12.85 268.53 12.45C268.897 12.05 269.33 11.7167 269.83 11.45C270.364 11.1833 270.997 11.05 271.73 11.05C272.93 11.05 273.814 11.4167 274.38 12.15C274.947 12.85 275.23 13.8667 275.23 15.2V32.9C275.23 34.0333 274.947 34.9167 274.38 35.55C273.814 36.15 272.98 36.45 271.88 36.45C270.847 36.45 270.03 36.15 269.43 35.55C268.864 34.9167 268.58 34.0333 268.58 32.9V20.2H269.83L263.53 30.7C263.297 31.0667 262.997 31.4167 262.63 31.75C262.264 32.0833 261.73 32.25 261.03 32.25C260.33 32.25 259.797 32.0833 259.43 31.75C259.064 31.4167 258.747 31.0667 258.48 30.7L252.13 20.2H253.38V32.9C253.38 34.0333 253.097 34.9167 252.53 35.55C251.964 36.15 251.147 36.45 250.08 36.45ZM285.44 36C284.274 36 283.374 35.6833 282.74 35.05C282.107 34.4167 281.79 33.5 281.79 32.3V14.85C281.79 13.5833 282.107 12.6333 282.74 12C283.407 11.3667 284.357 11.05 285.59 11.05C286.79 11.05 287.707 11.3667 288.34 12C289.007 12.6333 289.34 13.5833 289.34 14.85V19.25H295.24C298.54 19.25 301.024 19.95 302.69 21.35C304.39 22.7167 305.24 24.75 305.24 27.45C305.24 29.15 304.824 30.65 303.99 31.95C303.157 33.2167 301.99 34.2167 300.49 34.95C299.024 35.65 297.274 36 295.24 36H285.44ZM289.34 31.15H293.94C295.307 31.15 296.374 30.85 297.14 30.25C297.94 29.65 298.34 28.75 298.34 27.55C298.34 26.35 297.957 25.4667 297.19 24.9C296.424 24.3333 295.34 24.05 293.94 24.05H289.34V31.15ZM311.54 36.45C310.34 36.45 309.407 36.1167 308.74 35.45C308.107 34.7833 307.79 33.8333 307.79 32.6V14.85C307.79 13.5833 308.107 12.6333 308.74 12C309.407 11.3667 310.34 11.05 311.54 11.05C312.774 11.05 313.707 11.3667 314.34 12C315.007 12.6333 315.34 13.5833 315.34 14.85V32.6C315.34 35.1667 314.074 36.45 311.54 36.45ZM334.677 36.55C331.777 36.55 329.277 36.0333 327.177 35C325.11 33.9333 323.51 32.45 322.377 30.55C321.277 28.6167 320.727 26.35 320.727 23.75C320.727 21.2167 321.26 19 322.327 17.1C323.394 15.1667 324.877 13.6667 326.777 12.6C328.71 11.5 330.894 10.95 333.327 10.95C335.094 10.95 336.694 11.25 338.127 11.85C339.56 12.4167 340.794 13.25 341.827 14.35C342.86 15.4167 343.644 16.7333 344.177 18.3C344.71 19.8333 344.977 21.55 344.977 23.45C344.977 24.0833 344.777 24.5667 344.377 24.9C343.977 25.2 343.394 25.35 342.627 25.35H326.927V21.45H339.527L338.727 22.15C338.727 20.7833 338.527 19.65 338.127 18.75C337.727 17.8167 337.144 17.1167 336.377 16.65C335.644 16.1833 334.727 15.95 333.627 15.95C332.394 15.95 331.344 16.2333 330.477 16.8C329.61 17.3667 328.944 18.1833 328.477 19.25C328.01 20.3167 327.777 21.6 327.777 23.1V23.5C327.777 26.0333 328.36 27.9 329.527 29.1C330.727 30.3 332.494 30.9 334.827 30.9C335.627 30.9 336.544 30.8 337.577 30.6C338.61 30.4 339.577 30.0833 340.477 29.65C341.244 29.2833 341.927 29.1667 342.527 29.3C343.127 29.4 343.594 29.6667 343.927 30.1C344.26 30.5333 344.444 31.0333 344.477 31.6C344.544 32.1667 344.427 32.7333 344.127 33.3C343.827 33.8333 343.327 34.2833 342.627 34.65C341.494 35.2833 340.21 35.75 338.777 36.05C337.377 36.3833 336.01 36.55 334.677 36.55Z" fill="white"/>
<path d="M16.25 96.55C13.5833 96.55 11.25 96.0333 9.25 95C7.28333 93.9333 5.76667 92.4333 4.7 90.5C3.63333 88.5667 3.1 86.2833 3.1 83.65C3.1 81.6833 3.4 79.9167 4 78.35C4.6 76.7833 5.46667 75.45 6.6 74.35C7.76667 73.25 9.16667 72.4167 10.8 71.85C12.4333 71.25 14.25 70.95 16.25 70.95C17.2833 70.95 18.3833 71.0833 19.55 71.35C20.7167 71.5833 21.8667 72 23 72.6C23.6667 72.9 24.1167 73.3333 24.35 73.9C24.6167 74.4333 24.7167 75 24.65 75.6C24.5833 76.1667 24.3667 76.6833 24 77.15C23.6667 77.5833 23.2333 77.8833 22.7 78.05C22.1667 78.1833 21.5667 78.0833 20.9 77.75C20.2667 77.3833 19.6 77.1167 18.9 76.95C18.2333 76.7833 17.6 76.7 17 76.7C16 76.7 15.1167 76.8667 14.35 77.2C13.5833 77.5 12.9333 77.95 12.4 78.55C11.9 79.1167 11.5 79.8333 11.2 80.7C10.9333 81.5667 10.8 82.5667 10.8 83.7C10.8 85.9 11.3333 87.6333 12.4 88.9C13.5 90.1333 15.0333 90.75 17 90.75C17.6 90.75 18.2333 90.6833 18.9 90.55C19.5667 90.3833 20.2333 90.1167 20.9 89.75C21.5667 89.4167 22.1667 89.3333 22.7 89.5C23.2333 89.6667 23.65 89.9833 23.95 90.45C24.2833 90.8833 24.4667 91.4 24.5 92C24.5667 92.5667 24.4667 93.1333 24.2 93.7C23.9667 94.2333 23.5333 94.65 22.9 94.95C21.7667 95.5167 20.6333 95.9167 19.5 96.15C18.3667 96.4167 17.2833 96.55 16.25 96.55ZM40.807 96.55C38.1737 96.55 35.8737 96.0333 33.907 95C31.9737 93.9667 30.4737 92.4833 29.407 90.55C28.3404 88.6167 27.807 86.3333 27.807 83.7C27.807 81.7333 28.107 79.9667 28.707 78.4C29.307 76.8333 30.1737 75.5 31.307 74.4C32.4737 73.2667 33.857 72.4167 35.457 71.85C37.057 71.25 38.8404 70.95 40.807 70.95C43.4404 70.95 45.7237 71.4667 47.657 72.5C49.6237 73.5333 51.1404 75 52.207 76.9C53.307 78.8 53.857 81.0667 53.857 83.7C53.857 85.7 53.5404 87.4833 52.907 89.05C52.307 90.6167 51.4404 91.9667 50.307 93.1C49.1737 94.2333 47.7904 95.1 46.157 95.7C44.557 96.2667 42.7737 96.55 40.807 96.55ZM40.807 90.9C41.907 90.9 42.857 90.6333 43.657 90.1C44.457 89.5667 45.0904 88.7833 45.557 87.75C46.0237 86.6833 46.257 85.3333 46.257 83.7C46.257 81.2667 45.757 79.4833 44.757 78.35C43.757 77.1833 42.4404 76.6 40.807 76.6C39.7404 76.6 38.7904 76.85 37.957 77.35C37.157 77.85 36.5237 78.6333 36.057 79.7C35.6237 80.7333 35.407 82.0667 35.407 83.7C35.407 86.1333 35.907 87.95 36.907 89.15C37.907 90.3167 39.207 90.9 40.807 90.9ZM78.2328 96.45C77.0328 96.45 76.1161 96.1 75.4828 95.4C74.8495 94.7 74.5328 93.7 74.5328 92.4V87.75C73.6661 88.1167 72.7828 88.3833 71.8828 88.55C71.0161 88.7167 70.1495 88.8 69.2828 88.8C65.5495 88.8 62.7661 87.9 60.9328 86.1C59.0995 84.2667 58.1828 81.55 58.1828 77.95V74.85C58.1828 73.6167 58.4995 72.6833 59.1328 72.05C59.7995 71.3833 60.7328 71.05 61.9328 71.05C63.1328 71.05 64.0661 71.3833 64.7328 72.05C65.3995 72.6833 65.7328 73.6167 65.7328 74.85V77.25C65.7328 79.1833 66.0995 80.5833 66.8328 81.45C67.5995 82.3167 68.8995 82.75 70.7328 82.75C71.4328 82.75 72.0828 82.6833 72.6828 82.55C73.3161 82.3833 73.8828 82.1333 74.3828 81.8V75.05C74.3828 72.3833 75.6495 71.05 78.1828 71.05C79.4495 71.05 80.3828 71.4 80.9828 72.1C81.6161 72.7667 81.9328 73.75 81.9328 75.05V92.4C81.9328 93.7 81.6328 94.7 81.0328 95.4C80.4328 96.1 79.4995 96.45 78.2328 96.45ZM92.3285 96.45C91.0952 96.45 90.1452 96.1167 89.4785 95.45C88.8452 94.7833 88.5285 93.8333 88.5285 92.6V74.85C88.5285 73.5833 88.8452 72.6333 89.4785 72C90.1452 71.3667 91.0952 71.05 92.3285 71.05C93.5285 71.05 94.4452 71.3667 95.0785 72C95.7452 72.6333 96.0785 73.5833 96.0785 74.85V80.55H105.429V74.85C105.429 73.5833 105.745 72.6333 106.379 72C107.012 71.3667 107.945 71.05 109.179 71.05C110.379 71.05 111.312 71.3667 111.979 72C112.645 72.6333 112.979 73.5833 112.979 74.85V92.6C112.979 93.8333 112.645 94.7833 111.979 95.45C111.312 96.1167 110.379 96.45 109.179 96.45C107.945 96.45 107.012 96.1167 106.379 95.45C105.745 94.7833 105.429 93.8333 105.429 92.6V86.4H96.0785V92.6C96.0785 93.8333 95.7618 94.7833 95.1285 95.45C94.4952 96.1167 93.5618 96.45 92.3285 96.45ZM123.184 96C122.018 96 121.118 95.6833 120.484 95.05C119.851 94.4167 119.534 93.5 119.534 92.3V74.85C119.534 73.5833 119.851 72.6333 120.484 72C121.151 71.3667 122.101 71.05 123.334 71.05C124.534 71.05 125.451 71.3667 126.084 72C126.751 72.6333 127.084 73.5833 127.084 74.85V79.25H132.984C136.284 79.25 138.768 79.95 140.434 81.35C142.134 82.7167 142.984 84.75 142.984 87.45C142.984 89.15 142.568 90.65 141.734 91.95C140.901 93.2167 139.734 94.2167 138.234 94.95C136.768 95.65 135.018 96 132.984 96H123.184ZM127.084 91.15H131.684C133.051 91.15 134.118 90.85 134.884 90.25C135.684 89.65 136.084 88.75 136.084 87.55C136.084 86.35 135.701 85.4667 134.934 84.9C134.168 84.3333 133.084 84.05 131.684 84.05H127.084V91.15ZM149.284 96.45C148.084 96.45 147.151 96.1167 146.484 95.45C145.851 94.7833 145.534 93.8333 145.534 92.6V74.85C145.534 73.5833 145.851 72.6333 146.484 72C147.151 71.3667 148.084 71.05 149.284 71.05C150.518 71.05 151.451 71.3667 152.084 72C152.751 72.6333 153.084 73.5833 153.084 74.85V92.6C153.084 95.1667 151.818 96.45 149.284 96.45ZM172.421 96.55C169.521 96.55 167.021 96.0333 164.921 95C162.854 93.9333 161.254 92.45 160.121 90.55C159.021 88.6167 158.471 86.35 158.471 83.75C158.471 81.2167 159.004 79 160.071 77.1C161.138 75.1667 162.621 73.6667 164.521 72.6C166.454 71.5 168.638 70.95 171.071 70.95C172.838 70.95 174.438 71.25 175.871 71.85C177.304 72.4167 178.538 73.25 179.571 74.35C180.604 75.4167 181.388 76.7333 181.921 78.3C182.454 79.8333 182.721 81.55 182.721 83.45C182.721 84.0833 182.521 84.5667 182.121 84.9C181.721 85.2 181.138 85.35 180.371 85.35H164.671V81.45H177.271L176.471 82.15C176.471 80.7833 176.271 79.65 175.871 78.75C175.471 77.8167 174.888 77.1167 174.121 76.65C173.388 76.1833 172.471 75.95 171.371 75.95C170.138 75.95 169.088 76.2333 168.221 76.8C167.354 77.3667 166.688 78.1833 166.221 79.25C165.754 80.3167 165.521 81.6 165.521 83.1V83.5C165.521 86.0333 166.104 87.9 167.271 89.1C168.471 90.3 170.238 90.9 172.571 90.9C173.371 90.9 174.288 90.8 175.321 90.6C176.354 90.4 177.321 90.0833 178.221 89.65C178.988 89.2833 179.671 89.1667 180.271 89.3C180.871 89.4 181.338 89.6667 181.671 90.1C182.004 90.5333 182.188 91.0333 182.221 91.6C182.288 92.1667 182.171 92.7333 181.871 93.3C181.571 93.8333 181.071 94.2833 180.371 94.65C179.238 95.2833 177.954 95.75 176.521 96.05C175.121 96.3833 173.754 96.55 172.421 96.55ZM213.959 96.55C211.259 96.55 208.909 96.0167 206.909 94.95C204.909 93.85 203.359 92.2333 202.259 90.1C201.192 87.9333 200.659 85.2667 200.659 82.1V78.55C200.659 75.2167 201.175 72.4333 202.209 70.2C203.275 67.9333 204.842 66.1167 206.909 64.75C208.975 63.3833 211.525 62.3667 214.559 61.7L220.559 60.3C221.592 60.0667 222.459 60.15 223.159 60.55C223.859 60.9167 224.309 61.6 224.509 62.6C224.709 63.6 224.542 64.4333 224.009 65.1C223.509 65.7667 222.742 66.2 221.709 66.4L215.109 67.85C213.509 68.2167 212.159 68.7833 211.059 69.55C209.959 70.3167 209.125 71.2833 208.559 72.45C207.992 73.5833 207.709 74.9333 207.709 76.5V79.6H206.759C207.059 78.2 207.592 76.9167 208.359 75.75C209.159 74.5833 210.209 73.6667 211.509 73C212.842 72.3 214.409 71.95 216.209 71.95C218.242 71.95 220.042 72.4333 221.609 73.4C223.175 74.3667 224.409 75.75 225.309 77.55C226.242 79.3167 226.709 81.4333 226.709 83.9C226.709 86.4667 226.175 88.7 225.109 90.6C224.042 92.5 222.559 93.9667 220.659 95C218.759 96.0333 216.525 96.55 213.959 96.55ZM213.709 90.9C214.875 90.9 215.859 90.65 216.659 90.15C217.459 89.6167 218.059 88.8667 218.459 87.9C218.892 86.9 219.109 85.6833 219.109 84.25C219.109 82.0833 218.625 80.4333 217.659 79.3C216.725 78.1333 215.392 77.55 213.659 77.55C212.525 77.55 211.542 77.8167 210.709 78.35C209.909 78.85 209.292 79.5833 208.859 80.55C208.459 81.5167 208.259 82.6833 208.259 84.05C208.259 86.2833 208.725 87.9833 209.659 89.15C210.592 90.3167 211.942 90.9 213.709 90.9ZM238.295 105.45C237.428 105.45 236.712 105.217 236.145 104.75C235.578 104.283 235.245 103.667 235.145 102.9C235.045 102.167 235.178 101.383 235.545 100.55L238.895 93.15V96.25L230.045 75.95C229.712 75.0833 229.595 74.2833 229.695 73.55C229.828 72.7833 230.195 72.1833 230.795 71.75C231.428 71.2833 232.295 71.05 233.395 71.05C234.295 71.05 235.012 71.2667 235.545 71.7C236.112 72.1 236.628 72.8833 237.095 74.05L242.995 89.05H241.395L247.495 74C247.962 72.8667 248.478 72.1 249.045 71.7C249.645 71.2667 250.445 71.05 251.445 71.05C252.312 71.05 252.995 71.2833 253.495 71.75C254.028 72.1833 254.345 72.7667 254.445 73.5C254.578 74.2333 254.445 75.0333 254.045 75.9L242.295 102.55C241.795 103.683 241.228 104.45 240.595 104.85C239.995 105.25 239.228 105.45 238.295 105.45ZM262.836 105.45C261.603 105.45 260.653 105.117 259.986 104.45C259.353 103.817 259.036 102.867 259.036 101.6V74.85C259.036 73.6167 259.353 72.6833 259.986 72.05C260.653 71.3833 261.57 71.05 262.736 71.05C263.97 71.05 264.903 71.3833 265.536 72.05C266.17 72.6833 266.486 73.6167 266.486 74.85V78.25L265.936 76.3C266.436 74.7 267.436 73.4167 268.936 72.45C270.47 71.45 272.22 70.95 274.186 70.95C276.32 70.95 278.186 71.4667 279.786 72.5C281.42 73.5333 282.686 75 283.586 76.9C284.486 78.8 284.936 81.0667 284.936 83.7C284.936 86.3333 284.486 88.6167 283.586 90.55C282.686 92.4833 281.436 93.9667 279.836 95C278.236 96.0333 276.353 96.55 274.186 96.55C272.253 96.55 270.536 96.0833 269.036 95.15C267.536 94.1833 266.52 92.9333 265.986 91.4H266.586V101.6C266.586 102.867 266.253 103.817 265.586 104.45C264.953 105.117 264.036 105.45 262.836 105.45ZM271.936 90.9C273.003 90.9 273.936 90.6333 274.736 90.1C275.57 89.5667 276.203 88.7833 276.636 87.75C277.103 86.6833 277.336 85.3333 277.336 83.7C277.336 81.2667 276.836 79.4833 275.836 78.35C274.836 77.1833 273.536 76.6 271.936 76.6C270.87 76.6 269.92 76.85 269.086 77.35C268.286 77.85 267.653 78.6333 267.186 79.7C266.72 80.7333 266.486 82.0667 266.486 83.7C266.486 86.1333 266.986 87.95 267.986 89.15C268.986 90.3167 270.303 90.9 271.936 90.9ZM294.135 96.45C292.902 96.45 291.952 96.1167 291.285 95.45C290.652 94.75 290.335 93.7833 290.335 92.55V75.7C290.335 74.3333 290.685 73.2833 291.385 72.55C292.118 71.8167 293.168 71.45 294.535 71.45H306.985C308.018 71.45 308.802 71.7 309.335 72.2C309.868 72.7 310.135 73.4333 310.135 74.4C310.135 75.3667 309.868 76.1 309.335 76.6C308.802 77.1 308.018 77.35 306.985 77.35H297.885V92.55C297.885 95.15 296.635 96.45 294.135 96.45ZM326.571 96.55C323.671 96.55 321.171 96.0333 319.071 95C317.005 93.9333 315.405 92.45 314.271 90.55C313.171 88.6167 312.621 86.35 312.621 83.75C312.621 81.2167 313.155 79 314.221 77.1C315.288 75.1667 316.771 73.6667 318.671 72.6C320.605 71.5 322.788 70.95 325.221 70.95C326.988 70.95 328.588 71.25 330.021 71.85C331.455 72.4167 332.688 73.25 333.721 74.35C334.755 75.4167 335.538 76.7333 336.071 78.3C336.605 79.8333 336.871 81.55 336.871 83.45C336.871 84.0833 336.671 84.5667 336.271 84.9C335.871 85.2 335.288 85.35 334.521 85.35H318.821V81.45H331.421L330.621 82.15C330.621 80.7833 330.421 79.65 330.021 78.75C329.621 77.8167 329.038 77.1167 328.271 76.65C327.538 76.1833 326.621 75.95 325.521 75.95C324.288 75.95 323.238 76.2333 322.371 76.8C321.505 77.3667 320.838 78.1833 320.371 79.25C319.905 80.3167 319.671 81.6 319.671 83.1V83.5C319.671 86.0333 320.255 87.9 321.421 89.1C322.621 90.3 324.388 90.9 326.721 90.9C327.521 90.9 328.438 90.8 329.471 90.6C330.505 90.4 331.471 90.0833 332.371 89.65C333.138 89.2833 333.821 89.1667 334.421 89.3C335.021 89.4 335.488 89.6667 335.821 90.1C336.155 90.5333 336.338 91.0333 336.371 91.6C336.438 92.1667 336.321 92.7333 336.021 93.3C335.721 93.8333 335.221 94.2833 334.521 94.65C333.388 95.2833 332.105 95.75 330.671 96.05C329.271 96.3833 327.905 96.55 326.571 96.55ZM345.844 105.45C344.611 105.45 343.661 105.117 342.994 104.45C342.361 103.817 342.044 102.867 342.044 101.6V74.85C342.044 73.6167 342.361 72.6833 342.994 72.05C343.661 71.3833 344.577 71.05 345.744 71.05C346.977 71.05 347.911 71.3833 348.544 72.05C349.177 72.6833 349.494 73.6167 349.494 74.85V78.25L348.944 76.3C349.444 74.7 350.444 73.4167 351.944 72.45C353.477 71.45 355.227 70.95 357.194 70.95C359.327 70.95 361.194 71.4667 362.794 72.5C364.427 73.5333 365.694 75 366.594 76.9C367.494 78.8 367.944 81.0667 367.944 83.7C367.944 86.3333 367.494 88.6167 366.594 90.55C365.694 92.4833 364.444 93.9667 362.844 95C361.244 96.0333 359.361 96.55 357.194 96.55C355.261 96.55 353.544 96.0833 352.044 95.15C350.544 94.1833 349.527 92.9333 348.994 91.4H349.594V101.6C349.594 102.867 349.261 103.817 348.594 104.45C347.961 105.117 347.044 105.45 345.844 105.45ZM354.944 90.9C356.011 90.9 356.944 90.6333 357.744 90.1C358.577 89.5667 359.211 88.7833 359.644 87.75C360.111 86.6833 360.344 85.3333 360.344 83.7C360.344 81.2667 359.844 79.4833 358.844 78.35C357.844 77.1833 356.544 76.6 354.944 76.6C353.877 76.6 352.927 76.85 352.094 77.35C351.294 77.85 350.661 78.6333 350.194 79.7C349.727 80.7333 349.494 82.0667 349.494 83.7C349.494 86.1333 349.994 87.95 350.994 89.15C351.994 90.3167 353.311 90.9 354.944 90.9ZM376.993 96C375.826 96 374.926 95.6833 374.293 95.05C373.66 94.4167 373.343 93.5 373.343 92.3V74.85C373.343 73.5833 373.66 72.6333 374.293 72C374.96 71.3667 375.91 71.05 377.143 71.05C378.343 71.05 379.26 71.3667 379.893 72C380.56 72.6333 380.893 73.5833 380.893 74.85V79.25H386.793C390.093 79.25 392.576 79.95 394.243 81.35C395.943 82.7167 396.793 84.75 396.793 87.45C396.793 89.15 396.376 90.65 395.543 91.95C394.71 93.2167 393.543 94.2167 392.043 94.95C390.576 95.65 388.826 96 386.793 96H376.993ZM380.893 91.15H385.493C386.86 91.15 387.926 90.85 388.693 90.25C389.493 89.65 389.893 88.75 389.893 87.55C389.893 86.35 389.51 85.4667 388.743 84.9C387.976 84.3333 386.893 84.05 385.493 84.05H380.893V91.15ZM403.093 96.45C401.893 96.45 400.96 96.1167 400.293 95.45C399.66 94.7833 399.343 93.8333 399.343 92.6V74.85C399.343 73.5833 399.66 72.6333 400.293 72C400.96 71.3667 401.893 71.05 403.093 71.05C404.326 71.05 405.26 71.3667 405.893 72C406.56 72.6333 406.893 73.5833 406.893 74.85V92.6C406.893 95.1667 405.626 96.45 403.093 96.45ZM416.73 85.15C415.963 85.15 415.363 84.9167 414.93 84.45C414.496 83.9833 414.23 83.3 414.13 82.4L412.53 65.3C412.363 63.8 412.646 62.6 413.38 61.7C414.113 60.7667 415.23 60.3 416.73 60.3C418.163 60.3 419.246 60.7667 419.98 61.7C420.713 62.6 420.996 63.8 420.83 65.3L419.23 82.4C419.13 83.3 418.863 83.9833 418.43 84.45C418.03 84.9167 417.463 85.15 416.73 85.15ZM416.73 96.25C415.396 96.25 414.33 95.85 413.53 95.05C412.763 94.25 412.38 93.2167 412.38 91.95C412.38 90.7167 412.763 89.7167 413.53 88.95C414.33 88.15 415.396 87.75 416.73 87.75C418.063 87.75 419.096 88.15 419.83 88.95C420.596 89.7167 420.98 90.7167 420.98 91.95C420.98 93.2167 420.596 94.25 419.83 95.05C419.096 95.85 418.063 96.25 416.73 96.25Z" fill="#FF5C00"/>
</svg>
